<!DOCTYPE svg PUBLIC "-//W3C//DTD SVG 1.1//EN" "http://www.w3.org/Graphics/SVG/1.1/DTD/svg11.dtd">
<!-- Uploaded to: SVG Repo, www.svgrepo.com, Transformed by: SVG Repo Mixer Tools -->
<svg fill="#000000" version="1.1" id="Capa_1" xmlns="http://www.w3.org/2000/svg" xmlns:xlink="http://www.w3.org/1999/xlink" width="800px" height="800px" viewBox="0 0 44.502 44.502" xml:space="preserve">
<g id="SVGRepo_bgCarrier" stroke-width="0"/>
<g id="SVGRepo_tracerCarrier" stroke-linecap="round" stroke-linejoin="round"/>
<g id="SVGRepo_iconCarrier"> <g> <g> <path d="M1.5,14.169c0.828,0,1.5-0.672,1.5-1.5V4.333h8.337c0.827,0,1.5-0.672,1.5-1.5c0-0.829-0.673-1.5-1.5-1.5h-8.56 c-1.531,0-2.776,1.245-2.776,2.775v8.561C0,13.497,0.672,14.169,1.5,14.169z"/> <path d="M41.727,1.333h-8.562c-0.827,0-1.5,0.671-1.5,1.5c0,0.828,0.673,1.5,1.5,1.5h8.337v8.336c0,0.828,0.672,1.5,1.5,1.5 c0.826,0,1.5-0.672,1.5-1.5v-8.56C44.502,2.579,43.258,1.333,41.727,1.333z"/> <path d="M43.002,30.333c-0.827,0-1.5,0.671-1.5,1.5v8.336h-8.336c-0.828,0-1.5,0.671-1.5,1.5c0,0.828,0.672,1.5,1.5,1.5h8.562 c1.528,0,2.773-1.246,2.773-2.777v-8.559C44.502,31.004,43.83,30.333,43.002,30.333z"/> <path d="M11.336,40.169H3v-8.336c0-0.829-0.672-1.5-1.5-1.5c-0.828,0-1.5,0.671-1.5,1.5v8.559c0,1.531,1.246,2.777,2.775,2.777 h8.561c0.828,0,1.5-0.672,1.5-1.5C12.836,40.84,12.165,40.169,11.336,40.169z"/> <path d="M37.359,23.971c0.515-0.796,0.957-1.481,1.379-1.905c0.539-0.538,0.588-1.394,0.117-1.989 c-2.104-2.668-4.572-4.562-7.332-5.632c-0.002-0.001-0.004-0.001-0.006-0.001c-3.248-1.259-6.945-1.377-10.9-0.349 c-8.008,2.084-14.541,8.117-14.816,8.373c-0.354,0.332-0.526,0.816-0.463,1.3c0.066,0.483,0.363,0.904,0.797,1.128 c8.056,4.176,14.398,6.206,19.396,6.207l0,0C32.754,31.103,35.525,26.811,37.359,23.971z M29.619,16.959 c0.002,0.035,0.016,0.072,0.016,0.106c0,2.031-1.65,3.685-3.686,3.685c-2.03,0-3.684-1.652-3.684-3.685 c0-0.095,0.014-0.188,0.021-0.282C24.949,16.219,27.404,16.278,29.619,16.959z M25.531,28.103L25.531,28.103 c-4.037-0.001-9.414-1.632-15.998-4.853c2.004-1.574,5.604-4.097,9.758-5.604c0.002,0.018,0.007,0.032,0.009,0.049 c0.008,0.101,0.024,0.196,0.039,0.296c0.018,0.117,0.03,0.235,0.055,0.353c0.021,0.099,0.045,0.195,0.068,0.293 c0.024,0.111,0.053,0.223,0.084,0.332c0.028,0.097,0.063,0.192,0.098,0.287c0.037,0.104,0.072,0.211,0.115,0.313 c0.037,0.095,0.08,0.186,0.121,0.276c0.047,0.1,0.094,0.199,0.145,0.296c0.047,0.091,0.099,0.179,0.148,0.268 c0.055,0.093,0.108,0.186,0.168,0.275c0.055,0.085,0.11,0.168,0.172,0.251c0.062,0.088,0.127,0.174,0.192,0.259 c0.063,0.079,0.125,0.156,0.191,0.231c0.07,0.083,0.145,0.163,0.219,0.241c0.068,0.071,0.14,0.144,0.211,0.213 c0.078,0.075,0.16,0.147,0.242,0.22c0.074,0.065,0.148,0.13,0.228,0.191c0.086,0.067,0.176,0.134,0.266,0.198 c0.08,0.059,0.16,0.114,0.242,0.17c0.094,0.062,0.188,0.115,0.285,0.174c0.084,0.05,0.168,0.1,0.256,0.146 c0.102,0.054,0.205,0.103,0.312,0.15c0.086,0.04,0.17,0.081,0.261,0.116c0.108,0.047,0.223,0.086,0.336,0.125 c0.088,0.029,0.174,0.062,0.264,0.091c0.121,0.036,0.246,0.063,0.369,0.096c0.086,0.021,0.168,0.045,0.254,0.062 c0.144,0.027,0.283,0.047,0.429,0.064c0.071,0.01,0.146,0.023,0.221,0.032c0.22,0.021,0.439,0.032,0.664,0.032 c0.377,0,0.744-0.038,1.104-0.1c0.049-0.008,0.098-0.013,0.145-0.021c0.342-0.063,0.668-0.156,0.986-0.271 c0.057-0.021,0.113-0.041,0.172-0.062c0.312-0.121,0.611-0.264,0.898-0.428c0.049-0.027,0.096-0.059,0.143-0.086 c0.291-0.178,0.57-0.369,0.832-0.588c0.021-0.017,0.039-0.036,0.062-0.054c0.254-0.219,0.49-0.456,0.711-0.71 c0.021-0.025,0.047-0.05,0.068-0.076c0.216-0.257,0.408-0.533,0.584-0.821c0.029-0.05,0.062-0.099,0.091-0.148 c0.164-0.286,0.308-0.584,0.429-0.895c0.021-0.059,0.043-0.116,0.062-0.176c0.115-0.317,0.209-0.645,0.273-0.982 c0.002-0.016,0.01-0.029,0.014-0.045c1.14,0.711,2.209,1.623,3.205,2.729c-0.302,0.417-0.593,0.867-0.893,1.33 C33.096,25.044,31.121,28.103,25.531,28.103z"/> </g> </g> </g>
</svg>